<svg xmlns="http://www.w3.org/2000/svg" width="301.405" height="301.405" viewBox="0 0 301.405 301.405">
  <g id="Group_2" data-name="Group 2" transform="translate(-10 -19)">
    <g id="Group_1" data-name="Group 1" transform="translate(17 26)">
      <path id="Path_6" data-name="Path 6" d="M143.7,0A143.7,143.7,0,1,1,0,143.7,143.7,143.7,0,0,1,143.7,0Z" transform="translate(0 0)" fill="#e3e3e3" stroke="#434343" stroke-width="14"/>
      <path id="Path_2" data-name="Path 2" d="M297.857,273.12q-7.547,0-13.42-6.184t-5.872-17.509a69.97,69.97,0,0,1,1.257-12.371q1.257-6.918,2.936-14.154t2.936-13.631a56.9,56.9,0,0,0,1.257-10.588,13.588,13.588,0,0,0-1.572-7.025,4.673,4.673,0,0,0-4.089-2.621q-3.984,0-8.178,5.453l-1.257-.838a20.1,20.1,0,0,1,1.468-7.967,30.135,30.135,0,0,1,5.242-8.912,29.732,29.732,0,0,1,9.12-7.236A27.681,27.681,0,0,1,300.79,166.6q11.114,0,16.148,6.4a24.167,24.167,0,0,1,5.031,15.411c0,.98-.035,1.991-.1,3.04s-.176,2.066-.315,3.04q7.547-13.628,15.83-20.864t15.411-7.233q6.71,0,9.857,5.242c2.1,3.5,5.207,9.507,5.207,14.4,0,4.476.424,3.723-.51,10.236-.7,4.884-3.4,15.916-6.825,18.921s-12.691-1.476-17.584-1.617l-.838-.419a11.9,11.9,0,0,0-3.563-8.6,10.757,10.757,0,0,0-7.548-3.144q-5.661,0-10.588,5.661t-4.927,16.356a73.765,73.765,0,0,0,1.468,14.047,69.023,69.023,0,0,1,1.468,12.79,23.826,23.826,0,0,1-10.484,19.815,17.921,17.921,0,0,1-10.065,3.04h0Z" transform="translate(-201.413 -124.115)" fill="#434343" style="isolation: isolate"/>
      <path id="Path_3" data-name="Path 3" d="M504.055,514.158a32.142,32.142,0,0,1-15.307-3.67,29.363,29.363,0,0,1-11.322-10.8,12.5,12.5,0,0,1-2.936,7.34q-2.726,3.355-10.276,3.355-8.388,0-12.371-4.612t-3.982-12.163a100.8,100.8,0,0,1,1.257-13.316q1.257-8.7,3.04-19.607t3.566-22.647q1.778-11.742,3.04-22.855a179.069,179.069,0,0,0,1.257-19.919,73.66,73.66,0,0,0-.63-10.276,16.77,16.77,0,0,0-2.306-6.918v-1.257a35.338,35.338,0,0,1,10.065-7.863,22.5,22.5,0,0,1,10.065-2.621,15.707,15.707,0,0,1,12.163,5.661q5.032,5.661,5.031,18.032a161.112,161.112,0,0,1-1.257,17.09q-1.257,11.01-3.144,21.913,7.547-10.694,16.041-16.356t16.46-5.661q10.694,0,18.243,10.169T548.3,447.9A102.937,102.937,0,0,1,545.47,471.9a76.373,76.373,0,0,1-8.493,21.387,47.28,47.28,0,0,1-13.943,15.2,32.834,32.834,0,0,1-18.977,5.661h0ZM493.57,492.982q6.706,0,11.429-5.872a39.95,39.95,0,0,0,7.129-14.992,73.138,73.138,0,0,0,2.41-18.766A67.279,67.279,0,0,0,513.49,441.3a29.957,29.957,0,0,0-3.144-9.435q-2.1-3.667-5.453-3.67-5.873,0-13.313,13.735t-11.637,38.9q3.775,12.163,13.631,12.163h0Z" transform="translate(-330.459 -270.69)" fill="#434343" style="isolation: isolate"/>
      <path id="Path_4" data-name="Path 4" d="M495.541,336.219c-.788,3.359-2.72-.639-6.078-1.427s-6.866,1.928-6.078-1.427a6.246,6.246,0,1,1,12.161,2.858Z" transform="translate(-358.824 -244.73)" fill="#434343" style="isolation: isolate"/>
    </g>
  </g>
</svg>
